<?xml version="1.0" encoding="utf-8"?>
<!-- Generator: Adobe Illustrator 27.2.0, SVG Export Plug-In . SVG Version: 6.00 Build 0)  -->
<svg version="1.1" id="Layer_1" xmlns="http://www.w3.org/2000/svg" xmlns:xlink="http://www.w3.org/1999/xlink" x="0px" y="0px"
	 viewBox="0 0 128 128" style="enable-background:new 0 0 128 128;" xml:space="preserve">
<style type="text/css">
	.st0{fill:none;stroke:#FFFFFF;stroke-width:4;stroke-linejoin:round;stroke-miterlimit:10;}
	.st1{fill:none;stroke:#808080;stroke-width:4;stroke-miterlimit:10;}
	.st2{fill:#808080;}
	.st3{fill:#00BDF2;stroke:#231F20;stroke-width:2;stroke-miterlimit:10;}
	.st4{fill:#EC008C;stroke:#231F20;stroke-width:2;stroke-miterlimit:10;}
	.st5{fill:#FFFFFF;}
</style>
<g>
	<path class="st0" d="M76.56,100.26c-3.67,0-6.66,2.84-6.92,6.45c-1.86,0.24-3.75,0.37-5.64,0.37c-23.75,0-43.07-19.32-43.07-43.07
		c0-0.4,0.02-0.79,0.03-1.19l8.65,1.64l-8.88-13.05L7.69,60.29l9.3,1.76c-0.03,0.65-0.05,1.29-0.05,1.94
		c0,25.96,21.12,47.07,47.07,47.07c2.19,0,4.36-0.16,6.52-0.46c1.19,2.1,3.45,3.53,6.04,3.53c3.83,0,6.94-3.11,6.94-6.94
		S80.39,100.26,76.56,100.26z"/>
	<path class="st0" d="M111.01,65.89c0.03-0.63,0.06-1.26,0.06-1.89c0-25.96-21.12-47.07-47.07-47.07c-2.19,0-4.38,0.17-6.54,0.47
		c-1.18-2.15-3.46-3.61-6.09-3.61c-3.83,0-6.94,3.11-6.94,6.94s3.11,6.94,6.94,6.94c3.63,0,6.61-2.79,6.91-6.35
		c1.89-0.25,3.8-0.39,5.72-0.39c23.75,0,43.07,19.32,43.07,43.07c0,0.38-0.03,0.76-0.04,1.14l-8.93-1.69l8.88,13.05l13.05-8.88
		L111.01,65.89z"/>
</g>
<path class="st1" d="M75.81,107.51c-3.76,1.02-7.72,1.56-11.81,1.56c-24.89,0-45.07-20.18-45.07-45.07c0-3.35,0.37-6.61,1.06-9.75"
	/>
<path class="st1" d="M54.31,19.97c3.12-0.68,6.36-1.04,9.69-1.04c24.89,0,45.07,20.18,45.07,45.07c0,2.02-0.13,4.01-0.39,5.97"/>
<polygon class="st2" points="7.69,60.29 20.73,51.41 29.61,64.46 "/>
<polygon class="st2" points="120.04,67.61 106.99,76.49 98.11,63.44 "/>
<circle class="st2" cx="51.37" cy="20.73" r="6.94"/>
<circle class="st3" cx="26.56" cy="26.58" r="25.5"/>
<circle class="st4" cx="101.31" cy="101.34" r="25.5"/>
<g>
	<path class="st5" d="M76.56,113.64c-3.55,0-6.44-2.89-6.44-6.44s2.89-6.44,6.44-6.44S83,103.65,83,107.2S80.11,113.64,76.56,113.64
		z"/>
	<path class="st2" d="M76.56,101.26c3.28,0,5.94,2.67,5.94,5.94s-2.67,5.94-5.94,5.94c-3.28,0-5.94-2.67-5.94-5.94
		S73.28,101.26,76.56,101.26 M76.56,100.26c-3.83,0-6.94,3.11-6.94,6.94c0,3.83,3.11,6.94,6.94,6.94c3.83,0,6.94-3.11,6.94-6.94
		C83.5,103.36,80.39,100.26,76.56,100.26L76.56,100.26z"/>
</g>
</svg>
